<svg xmlns="http://www.w3.org/2000/svg" width="39.47mm" height="38.25mm" viewBox="0 0 111.89 108.43"><defs><style>.a{fill:#231f20;}</style></defs><title>logo-table</title><circle class="a" cx="28.15" cy="50.98" r="4.38"/><circle class="a" cx="82.77" cy="50.98" r="4.38"/><circle class="a" cx="74.77" cy="31.67" r="4.38"/><circle class="a" cx="55.46" cy="23.67" r="4.38"/><circle class="a" cx="36.15" cy="31.67" r="4.38"/><circle class="a" cx="8.86" cy="50.98" r="4.38"/><circle class="a" cx="102.06" cy="50.98" r="4.38"/><circle class="a" cx="95.82" cy="27.68" r="4.38"/><circle class="a" cx="78.76" cy="10.62" r="4.38"/><circle class="a" cx="55.46" cy="4.38" r="4.38"/><circle class="a" cx="32.16" cy="10.62" r="4.38"/><circle class="a" cx="15.1" cy="27.68" r="4.38"/><circle class="a" cx="55.46" cy="50.98" r="12.23"/><path class="a" d="M23.64,117.37V101.9h-4.1V98.31h4.1V88.78h4.1v9.53h7.48v3.59H27.74v15.47A3.2,3.2,0,0,0,31,120.86h4.46v3.08a20.5,20.5,0,0,1-4.2.51C26.72,124.45,23.64,121.63,23.64,117.37Z" transform="translate(-19.54 -16.02)"/><path class="a" d="M37.58,111.12c0-8,5-13.32,12.51-13.32a11.66,11.66,0,0,1,9.12,4.81v-4.3h4.1v25.63h-4.1v-4.31a11.67,11.67,0,0,1-9.12,4.82C42.6,124.45,37.58,119.12,37.58,111.12Zm21.63,0c0-5.84-3.48-9.74-8.71-9.74s-8.82,3.9-8.82,9.74,3.54,9.74,8.82,9.74S59.21,117,59.21,111.12Z" transform="translate(-19.54 -16.02)"/><path class="a" d="M72.28,119.58v4.36h-4.1V88.78h4.1v13.88a11.72,11.72,0,0,1,9.33-4.86c7.59,0,12.71,5.33,12.71,13.32s-5.12,13.33-12.71,13.33A11.73,11.73,0,0,1,72.28,119.58Zm17.94-8.46c0-5.84-3.64-9.74-9-9.74s-8.92,3.9-8.92,9.74,3.59,9.74,8.92,9.74S90.22,117,90.22,111.12Z" transform="translate(-19.54 -16.02)"/><path class="a" d="M98,88.78h4.1v35.16H98Z" transform="translate(-19.54 -16.02)"/><path class="a" d="M105.7,111.12c0-8,5.18-13.32,12.87-13.32s12.86,5.53,12.86,13.73l-.41.41H109.85c.21,5.33,3.69,8.92,8.72,8.92a8.48,8.48,0,0,0,8.2-5.64h4.1a12.73,12.73,0,0,1-12.3,9.23C110.88,124.45,105.7,119.12,105.7,111.12Zm21.38-2.77a8.68,8.68,0,0,0-17,0Z" transform="translate(-19.54 -16.02)"/></svg>